<svg xmlns="http://www.w3.org/2000/svg" viewBox="0 0 245 512" width="245" height="512">
	<style>
		tspan { white-space:pre }
		.shp0 { fill: #96cd82 } 
		.shp1 { fill: #7dbe81 } 
		.shp2 { fill: #b4e6a0 } 
		.shp3 { fill: #cdf5a0 } 
	</style>
	<path id="Layer" class="shp0" d="M122.51,407.8c0,-25.02 14.27,-48.01 36.95,-58.58c49.27,-22.95 84.96,-90.58 84.96,-170.43c0,-98.74 -54.58,-178.79 -121.91,-178.79c-67.32,0 -121.9,80.05 -121.9,178.79c0,79.86 35.69,147.48 84.95,170.43c22.68,10.57 36.95,33.55 36.95,58.58z" />
	<path id="Layer" class="shp1" d="M123.32,342.34c-44.65,-23.57 -82.17,-81.74 -93.87,-154.17c-10.22,-63.25 1.73,-122.51 28.19,-160.75c-34.21,31.66 -57.02,87.66 -57.02,151.37c0,79.86 35.69,147.48 84.95,170.43c22.68,10.57 36.95,33.55 36.95,58.58c0,-3.3 0.33,-6.54 0.81,-9.74z" />
	<g id="Layer">
		<path id="Layer" class="shp2" d="M128.25,314.57c3.18,-3.18 3.18,-8.32 0,-11.49l-97.12,-97.12c-3.17,-3.18 -8.32,-3.18 -11.49,0c-3.18,3.18 -3.18,8.32 0,11.49l97.12,97.12c1.59,1.59 3.67,2.38 5.75,2.38c2.08,0 4.16,-0.79 5.75,-2.38z" />
		<path id="Layer" class="shp2" d="M128.25,249.55l81.27,-81.27c3.18,-3.18 3.18,-8.32 0,-11.49c-3.18,-3.18 -8.32,-3.18 -11.49,0l-81.27,81.27c-3.18,3.18 -3.18,8.32 0,11.49c1.59,1.59 3.67,2.38 5.75,2.38c2.08,0 4.16,-0.79 5.75,-2.38z" />
		<path id="Layer" class="shp2" d="M128.25,192.67c3.18,-3.18 3.18,-8.32 0,-11.49l-56.89,-56.89c-3.17,-3.18 -8.32,-3.18 -11.49,0c-3.17,3.18 -3.17,8.32 0,11.49l56.89,56.89c1.59,1.59 3.67,2.38 5.75,2.38c2.08,0 4.16,-0.79 5.75,-2.38z" />
	</g>
	<path id="Layer" class="shp3" d="M130.63,503.87v-430.73c0,-4.49 -3.63,-8.13 -8.12,-8.13c-4.49,0 -8.13,3.64 -8.13,8.13v430.73c0,4.49 3.64,8.13 8.13,8.13c4.49,0 8.13,-3.64 8.13,-8.13z" />
</svg>